<svg id="Layer_1" data-name="Layer 1" xmlns="http://www.w3.org/2000/svg" xmlns:xlink="http://www.w3.org/1999/xlink" viewBox="0 0 400 400"><defs><style>.cls-1{fill:url(#linear-gradient);}.cls-2{fill:url(#linear-gradient-2);}.cls-3{fill:url(#linear-gradient-3);}.cls-4{fill:url(#linear-gradient-4);}.cls-5{fill:url(#linear-gradient-5);}.cls-6{fill:url(#linear-gradient-6);}.cls-7{fill:url(#linear-gradient-7);}.cls-8{fill:url(#linear-gradient-8);}.cls-9{fill:url(#linear-gradient-9);}.cls-10{fill:url(#linear-gradient-10);}.cls-11{fill:url(#linear-gradient-11);}.cls-12{fill:url(#linear-gradient-12);}.cls-13{fill:url(#linear-gradient-13);}.cls-14{fill:url(#linear-gradient-14);}.cls-15{fill:url(#linear-gradient-15);}.cls-16{fill:#0e173e;}</style><linearGradient id="linear-gradient" x1="-1.84" y1="310.85" x2="390.49" y2="307.72" gradientUnits="userSpaceOnUse"><stop offset="0" stop-color="#e3c27c"/><stop offset="0" stop-color="#cf962b"/><stop offset="0.2" stop-color="#faa71a"/><stop offset="0.41" stop-color="#bf782a"/><stop offset="0.59" stop-color="#f3af1c"/><stop offset="0.77" stop-color="#d19f2a"/><stop offset="1" stop-color="#f7991d"/></linearGradient><linearGradient id="linear-gradient-2" x1="-1.84" y1="311.07" x2="390.49" y2="307.94" xlink:href="#linear-gradient"/><linearGradient id="linear-gradient-3" x1="-1.84" y1="311.36" x2="390.49" y2="308.23" xlink:href="#linear-gradient"/><linearGradient id="linear-gradient-4" x1="-1.84" y1="311.66" x2="390.49" y2="308.53" xlink:href="#linear-gradient"/><linearGradient id="linear-gradient-5" x1="-1.83" y1="311.99" x2="390.5" y2="308.86" xlink:href="#linear-gradient"/><linearGradient id="linear-gradient-6" x1="-1.84" y1="311.81" x2="390.49" y2="308.68" xlink:href="#linear-gradient"/><linearGradient id="linear-gradient-7" x1="-1.83" y1="312.47" x2="390.5" y2="309.34" xlink:href="#linear-gradient"/><linearGradient id="linear-gradient-8" x1="-1.83" y1="312.72" x2="390.5" y2="309.58" xlink:href="#linear-gradient"/><linearGradient id="linear-gradient-9" x1="-1.83" y1="313.06" x2="390.5" y2="309.93" xlink:href="#linear-gradient"/><linearGradient id="linear-gradient-10" x1="-1.85" y1="309.5" x2="390.48" y2="306.37" xlink:href="#linear-gradient"/><linearGradient id="linear-gradient-11" x1="-1.82" y1="313.56" x2="390.51" y2="310.42" xlink:href="#linear-gradient"/><linearGradient id="linear-gradient-12" x1="92.72" y1="123.1" x2="226.18" y2="244.09" xlink:href="#linear-gradient"/><linearGradient id="linear-gradient-13" x1="171.82" y1="35.85" x2="305.28" y2="156.84" xlink:href="#linear-gradient"/><linearGradient id="linear-gradient-14" x1="124.55" y1="87.99" x2="258.01" y2="208.98" xlink:href="#linear-gradient"/><linearGradient id="linear-gradient-15" x1="140.21" y1="70.72" x2="273.67" y2="191.71" xlink:href="#linear-gradient"/></defs><path class="cls-1" d="M29.84,293.47l12.43,34.24h-8.6l-2.29-6.2H23.5l-4-6.79-4.92,13H5.73l12.66-34.24ZM19.72,314.09h9.17l-4.57-12.9Z"/><path class="cls-2" d="M55.85,293.47l10.38,28.46V293.47h7.53v34.24H60.82L51.09,300v27.71h-7.6V293.47Z"/><path class="cls-3" d="M84.75,293.47h31.44l-3.92,6.72h-8.33v27.52H95.83V300.19H84.75Z"/><path class="cls-4" d="M117.59,293.47h8.16V306.7h12.08V293.47H146v34.24h-8.14V307.84l-4,6.25h-8.07v13.62h-8.16Z"/><path class="cls-5" d="M149,293.47h8.16V313a13.65,13.65,0,0,0,.57,4.37,4.35,4.35,0,0,0,1.88,2.42,8.63,8.63,0,0,0,2.29.91,10.51,10.51,0,0,0,2,.18,8,8,0,0,0,4.15-1.05,5,5,0,0,0,2.34-3.1,21.32,21.32,0,0,0,.53-5.25v-18H179v19.62q0,6-1.52,8.79a10,10,0,0,1-3.68,4,14.41,14.41,0,0,1-4.65,1.67,31.62,31.62,0,0,1-5.47.43q-1.55,0-2.85-.09a21.15,21.15,0,0,1-2.55-.33,13.47,13.47,0,0,1-2.49-.71,18,18,0,0,1-2.54-1.25,7.65,7.65,0,0,1-3.47-4.69,34.86,34.86,0,0,1-.82-8.49Z"/><path class="cls-6" d="M204.52,293.47,217,327.71h-8.61l-2.28-6.2h-7.89l-4-6.79-4.92,13H180.4l12.66-34.24ZM196,286.15h5.48l4.1,5.5H201l-2.22-3-2.28,3H191.8Zm-1.64,27.94h9.17L199,301.19Zm8.38,16.4v3.78h-8.21v-3.78Z"/><path class="cls-7" d="M230.52,293.47l10.38,28.46V293.47h7.54v34.24H235.49L225.77,300v27.71h-7.61V293.47Z"/><path class="cls-8" d="M268.28,309.7v18h-8.16V293.47h19a17.44,17.44,0,0,1,5.59.83,6.46,6.46,0,0,1,3.62,2.83,12.07,12.07,0,0,1,1.64,3.71,18.7,18.7,0,0,1,.37,3.85,18.21,18.21,0,0,1-.28,3.43,13.61,13.61,0,0,1-1.56,3.78,6.64,6.64,0,0,1-3.93,3.15,24.08,24.08,0,0,1-7.13.86h-4.1Zm0-1h7.21a12.37,12.37,0,0,0,4.22-.49,2.88,2.88,0,0,0,1.62-1.33,5.13,5.13,0,0,0,.44-2.29,5,5,0,0,0-.4-2.1,3,3,0,0,0-1.74-1.18,14.26,14.26,0,0,0-4-.4h-7.37Z"/><path class="cls-9" d="M293.08,293.47h8.16V306.7h12.08V293.47h8.14v34.24h-8.14V307.84l-4,6.25h-8.07v13.62h-8.16Z"/><path class="cls-10" d="M346.72,293.47l12.43,34.24h-8.6l-2.29-6.2h-7.88l-4-6.79-4.92,13h-8.84l12.66-34.24ZM336.6,314.09h9.17l-4.57-12.9Zm9.12-28.27-4.5,5.16h-3.29l2.64-5.3h5.15Z"/><path class="cls-11" d="M359.81,293.47h31.44l-3.92,6.72H379v27.52h-8.11V300.19H359.81Z"/><polygon class="cls-12" points="195.86 254.94 82.83 141.91 142.61 141.91 175.96 160.6 177.03 161.19 177.61 162.26 195.86 195.17 195.86 254.94"/><polygon class="cls-13" points="314.14 136.65 254.37 136.66 221.01 118.86 219.94 118.27 219.36 117.2 201.12 83.4 201.12 23.63 314.14 136.65"/><rect class="cls-14" x="181.99" y="139.29" width="16.5" height="16.5"/><rect class="cls-15" x="198.48" y="122.78" width="16.51" height="16.51"/><polygon class="cls-16" points="142.61 136.65 82.83 136.65 195.86 23.63 195.86 83.4 177.61 117.2 177.03 118.27 175.96 118.86 142.61 136.65"/><polygon class="cls-16" points="201.12 254.94 201.12 195.17 219.36 162.26 219.94 161.19 221.01 160.6 254.37 141.91 314.14 141.91 201.12 254.94"/><rect class="cls-16" x="181.99" y="122.78" width="16.5" height="16.51"/><rect class="cls-16" x="198.48" y="139.29" width="16.51" height="16.5"/><path class="cls-16" d="M111.11,369.63a3.93,3.93,0,0,1,0-.46q0-.66.09-1.77,0-.5,0-.87V352.87c0-1.32-.06-2.75-.18-4.3h4.24l8.94,14.33V352.84q0-1-.06-2c0-.72-.09-1.47-.17-2.23h3.42l0,.54c0,.33,0,.64-.08,1s0,.75-.07,1.33c0,.38,0,.68,0,.89v15.59a13.44,13.44,0,0,0,.12,1.84l.06.51h-4.08l-9.14-14.56v10.26c0,.59,0,1.28.06,2.08s.09,1.53.15,2.22h-3.36A4.54,4.54,0,0,0,111.11,369.63Z"/><path class="cls-16" d="M130.52,368c0-.8.06-1.48.06-2.05V352.87c0-.7,0-1.39,0-2.09s-.07-1.43-.13-2.21h4.78v7.79a5.82,5.82,0,0,1,4.22-1.81,5,5,0,0,1,2.49.62,4.18,4.18,0,0,1,1.66,1.7,3.91,3.91,0,0,1,.33,1,6.43,6.43,0,0,1,.13,1.3v6.76c0,.73,0,1.43,0,2.11s.07,1.41.13,2.19h-4.95c0-.25,0-.44,0-.57s0-.29,0-.46c0-.44.07-1,.09-1.76,0-.38,0-.68,0-.91v-7a2.53,2.53,0,0,0-.15-1.06,1.61,1.61,0,0,0-.7-.72,2.07,2.07,0,0,0-1-.29,3.2,3.2,0,0,0-2.33,1.2v8c0,.21,0,.44,0,.72s0,.54,0,.77l0,.66,0,.64c0,.22,0,.48,0,.76h-5C130.43,369.54,130.49,368.8,130.52,368Z"/><path class="cls-16" d="M155.2,359.05a1.89,1.89,0,0,0-.94-1.52,4,4,0,0,0-2.21-.57,5.93,5.93,0,0,0-1.93.33,11.41,11.41,0,0,0-2.22,1.11V355c.88-.17,1.66-.28,2.35-.35a21.64,21.64,0,0,1,2.21-.11,9.69,9.69,0,0,1,5.35,1.28,4,4,0,0,1,1.95,3.53v6.72c0,.59,0,1.09.05,1.52a10.92,10.92,0,0,0,.16,1.28c.05.22.09.41.12.59a6.53,6.53,0,0,0,.19.79h-4.72a2.26,2.26,0,0,1-.18-.57,5.62,5.62,0,0,1,0-.66,6.13,6.13,0,0,1-1.83,1.2,6,6,0,0,1-2.16.37,4.87,4.87,0,0,1-3.49-1.24,4.19,4.19,0,0,1-1.32-3.22,4.67,4.67,0,0,1,1.16-3.2,9.75,9.75,0,0,1,3.71-2.32,17.54,17.54,0,0,1,1.84-.66c.55-.16,1.21-.32,2-.48Zm-2.28-10.11c.22.52.4.91.52,1.18s.3.59.5.94.42.79.61,1.1.47.75.83,1.31h-2l-3.75-4.53Zm2.4,12.55c-.28.18-.5.3-.66.39a3.35,3.35,0,0,0-.45.27l-1.15.57c-1.53.78-2.3,1.78-2.3,3a2.11,2.11,0,0,0,.63,1.57,2.21,2.21,0,0,0,1.61.61,3.48,3.48,0,0,0,1.18-.2,4.1,4.1,0,0,0,1.14-.72Z"/><path class="cls-16" d="M171.89,356.25v-3.38c0-.75,0-1.45,0-2.11s-.09-1.39-.18-2.19h6.94c3.14,0,5.54.94,7.18,2.82s2.47,4.6,2.47,8.15a13,13,0,0,1-1.32,6.06,8.51,8.51,0,0,1-3.85,3.79,6.94,6.94,0,0,1-1.9.63,12.91,12.91,0,0,1-2.42.21h-7.13c0-.32,0-.61.06-.86s0-.48.05-.69,0-.41,0-.61,0-.43,0-.67l0-.38,0-1.09v-7.46H170v-2.22Zm7.55,0v2.22h-2.53v8.93h2a3.7,3.7,0,0,0,1.92-.48,3.6,3.6,0,0,0,1.32-1.51,9,9,0,0,0,.75-2.64,26.86,26.86,0,0,0,.24-3.89,14.31,14.31,0,0,0-.57-4.48,4.89,4.89,0,0,0-1.8-2.54,2.78,2.78,0,0,0-1-.39,7.24,7.24,0,0,0-1.37-.13h-1.49v4.91Z"/><path class="cls-16" d="M194.71,364.35a5.74,5.74,0,0,0,1.41,2.76,3.27,3.27,0,0,0,2.4,1,4.65,4.65,0,0,0,3.52-1.83l1.38,1.7q-.34.39-.54.57l-.52.4a8.53,8.53,0,0,1-5.19,1.63,7.76,7.76,0,0,1-3.06-.58,6.3,6.3,0,0,1-2.34-1.65,7.68,7.68,0,0,1-1.49-2.61,10.34,10.34,0,0,1-.53-3.41,9.36,9.36,0,0,1,.51-3.14,7.32,7.32,0,0,1,1.45-2.46,6.55,6.55,0,0,1,2.22-1.59,6.82,6.82,0,0,1,2.85-.58,6.26,6.26,0,0,1,4.58,1.64,7.19,7.19,0,0,1,1.91,4.73Zm-.47-2.71c0,.14,0,.32,0,.54l3.7-1.5a1.14,1.14,0,0,0,.72-1.2,2.83,2.83,0,0,0-.59-1.76,1.72,1.72,0,0,0-1.39-.76,2,2,0,0,0-1.81,1.15,5.93,5.93,0,0,0-.69,3.06C194.22,361.34,194.23,361.5,194.24,361.64Zm1.13,11.2a2.27,2.27,0,0,1,1.63-.54,1.94,1.94,0,0,1,1.45.57,2,2,0,0,1,.55,1.46,1.93,1.93,0,0,1-.58,1.49,2.17,2.17,0,0,1-1.56.55,2,2,0,0,1-1.51-.55,2,2,0,0,1-.55-1.49A2,2,0,0,1,195.37,372.84Z"/><path class="cls-16" d="M210.1,355l.09.89a7.32,7.32,0,0,1,1.63-1,4.46,4.46,0,0,1,1.74-.32,4.82,4.82,0,0,1,2.29.56,5.67,5.67,0,0,1,1.81,1.55,7.35,7.35,0,0,1,1.21,2.35,10.14,10.14,0,0,1,.43,3,10.94,10.94,0,0,1-.49,3.35,8.79,8.79,0,0,1-1.33,2.69,6.69,6.69,0,0,1-2,1.79,4.93,4.93,0,0,1-2.48.66,4.3,4.3,0,0,1-1.36-.19,5.86,5.86,0,0,1-1.28-.61v2c0,.53,0,1.19.05,2s.06,1.58.1,2.34h-4.93l0-.57c0-.28,0-.59.05-.94s0-.7,0-1,0-.67,0-1,0-.57,0-.8l0-12.49c0-.37,0-.73,0-1.07s0-.68,0-1,0-.68-.07-1-.07-.72-.11-1.12Zm1,12.77a2,2,0,0,0,.92.19,2.24,2.24,0,0,0,2.06-1.45,10.06,10.06,0,0,0,.71-4.25,8.18,8.18,0,0,0-.66-3.7,2.06,2.06,0,0,0-1.89-1.26,1.77,1.77,0,0,0-1.05.32,3.36,3.36,0,0,0-.82.91v8.54A2.16,2.16,0,0,0,211.08,367.75Z"/><path class="cls-16" d="M229.55,364.88a11.19,11.19,0,0,0,3,2.21,6.93,6.93,0,0,0,3,.68,3.9,3.9,0,0,0,2.55-.82,2.59,2.59,0,0,0,1-2.1,2.63,2.63,0,0,0-.65-1.77,6.9,6.9,0,0,0-2.14-1.5l-1.63-.81c-.46-.22-.87-.44-1.23-.64s-.7-.41-1-.62a6.39,6.39,0,0,1-2.07-2.17,5.53,5.53,0,0,1-.13-5.25,6.18,6.18,0,0,1,1.66-2,8.09,8.09,0,0,1,2.53-1.32,10.38,10.38,0,0,1,3.17-.47,14.56,14.56,0,0,1,4.82.89v4.21a10.65,10.65,0,0,0-2.56-1.85,5.79,5.79,0,0,0-2.54-.58,3.14,3.14,0,0,0-2.11.67,2.27,2.27,0,0,0-.79,1.82,3.18,3.18,0,0,0,.09.74,1.29,1.29,0,0,0,.29.61,2.93,2.93,0,0,0,.32.41,2.8,2.8,0,0,0,.43.34,6.55,6.55,0,0,0,.68.39l1,.51,1.89.93a9.9,9.9,0,0,1,3.66,2.69,5.8,5.8,0,0,1,1.1,3.58,6.68,6.68,0,0,1-.59,2.82,6.21,6.21,0,0,1-1.65,2.18,7.86,7.86,0,0,1-2.55,1.41,10,10,0,0,1-3.26.52,12.2,12.2,0,0,1-3-.37,24.47,24.47,0,0,1-3.22-1.14Z"/><path class="cls-16" d="M254.05,359.05a1.89,1.89,0,0,0-.94-1.52,4,4,0,0,0-2.21-.57,5.89,5.89,0,0,0-1.93.33,11.41,11.41,0,0,0-2.22,1.11V355c.88-.17,1.66-.28,2.34-.35a22,22,0,0,1,2.22-.11,9.69,9.69,0,0,1,5.35,1.28,4,4,0,0,1,1.95,3.53v6.72c0,.59,0,1.09.05,1.52a9.14,9.14,0,0,0,.16,1.28c.05.22.08.41.11.59s.1.45.19.79H254.4a2.64,2.64,0,0,1-.17-.57,5.62,5.62,0,0,1,0-.66,6.13,6.13,0,0,1-1.83,1.2,6,6,0,0,1-2.16.37,4.87,4.87,0,0,1-3.49-1.24,4.19,4.19,0,0,1-1.32-3.22,4.67,4.67,0,0,1,1.16-3.2,9.75,9.75,0,0,1,3.71-2.32,17.54,17.54,0,0,1,1.84-.66c.55-.16,1.21-.32,2-.48Zm.12,2.44-.66.39a4.25,4.25,0,0,0-.46.27l-1.14.57c-1.53.78-2.3,1.78-2.3,3a2.11,2.11,0,0,0,.63,1.57,2.21,2.21,0,0,0,1.61.61,3.42,3.42,0,0,0,1.17-.2,4,4,0,0,0,1.15-.72Z"/><path class="cls-16" d="M262,367.72c0-.75.06-1.46.06-2.11v-6.25c0-.72,0-1.43-.05-2.12s-.08-1.44-.16-2.26h4.78v1.41a5.58,5.58,0,0,1,5.95-1.46,5.2,5.2,0,0,1,1.59.83,3.48,3.48,0,0,1,1,1.47,6.93,6.93,0,0,1,.32,2.31v6.13c0,.46,0,.91,0,1.35s0,.88.05,1.32,0,.6.06.84.05.59.08,1.05h-5l0-.66.06-1.16c0-.39,0-.76.08-1.11s.06-.67.08-.94,0-.48,0-.63V359.6c0-1.42-.67-2.13-2-2.13a2.26,2.26,0,0,0-1.22.32,4.11,4.11,0,0,0-1.08,1.09v8.23c0,.38,0,.73,0,1l.06,1c0,.33.05.7.09,1.12h-5C261.89,369.31,262,368.47,262,367.72Z"/><path class="cls-16" d="M290.4,354.92l1.29.78c-.06.27-.11.52-.14.74l-.09.49c0,.36-.08,1.05-.13,2.07s-.06,2.38-.06,4.09v1.07c0,1.74.06,3.3.19,4.69.06.94.09,1.69.09,2.24a4.56,4.56,0,0,1-1.84,3.9,9,9,0,0,1-5.35,1.34,17.1,17.1,0,0,1-3.12-.27,16.13,16.13,0,0,1-3-.87L279,372a14,14,0,0,0,2.67,1.5,6.3,6.3,0,0,0,2.32.45c1.93,0,2.9-.88,2.9-2.64,0-.26,0-.54,0-.82s-.05-.64-.09-1v-.06a5.36,5.36,0,0,1-1.45.87,4.78,4.78,0,0,1-1.64.26,4.93,4.93,0,0,1-2.32-.55,5.52,5.52,0,0,1-1.84-1.54,7.77,7.77,0,0,1-1.2-2.37,9.69,9.69,0,0,1-.43-3,10.36,10.36,0,0,1,.53-3.4,8.65,8.65,0,0,1,1.44-2.69,6.51,6.51,0,0,1,2.21-1.76,6.33,6.33,0,0,1,2.81-.63,6.77,6.77,0,0,1,2.2.32A7.06,7.06,0,0,1,289,356Zm-3.63,2.9a2.6,2.6,0,0,0-.83-.66A2.43,2.43,0,0,0,285,357a2.14,2.14,0,0,0-1.95,1.49,10.44,10.44,0,0,0-.69,4.27,8.72,8.72,0,0,0,.63,3.72,2,2,0,0,0,1.83,1.3,2,2,0,0,0,1.93-1.3Z"/></svg>