<svg id="Layer_1" data-name="Layer 1" xmlns="http://www.w3.org/2000/svg" xmlns:xlink="http://www.w3.org/1999/xlink" viewBox="0 0 351.56 92.44"><defs><style>.cls-1{fill:url(#linear-gradient);}.cls-2{fill:url(#linear-gradient-2);}.cls-3{fill:url(#linear-gradient-3);}.cls-4{fill:url(#linear-gradient-4);}.cls-5{fill:#0e173e;}.cls-6{fill:url(#linear-gradient-5);}.cls-7{fill:url(#linear-gradient-9);}.cls-8{fill:url(#linear-gradient-10);}.cls-9{fill:url(#linear-gradient-14);}</style><linearGradient id="linear-gradient" x1="5.27" y1="37.57" x2="54.3" y2="86.6" gradientUnits="userSpaceOnUse"><stop offset="0" stop-color="#e3c27c"/><stop offset="0" stop-color="#cf962b"/><stop offset="0.2" stop-color="#faa71a"/><stop offset="0.41" stop-color="#bf782a"/><stop offset="0.59" stop-color="#f3af1c"/><stop offset="0.77" stop-color="#d19f2a"/><stop offset="1" stop-color="#f7991d"/></linearGradient><linearGradient id="linear-gradient-2" x1="37.48" y1="5.36" x2="86.51" y2="54.39" xlink:href="#linear-gradient"/><linearGradient id="linear-gradient-3" x1="19.23" y1="25.83" x2="66.63" y2="73.22" xlink:href="#linear-gradient"/><linearGradient id="linear-gradient-4" x1="25.83" y1="19.23" x2="73.22" y2="66.63" xlink:href="#linear-gradient"/><linearGradient id="linear-gradient-5" x1="228.05" y1="34.88" x2="499.07" y2="34.88" xlink:href="#linear-gradient"/><linearGradient id="linear-gradient-9" x1="228.05" y1="34.97" x2="499.07" y2="34.97" xlink:href="#linear-gradient"/><linearGradient id="linear-gradient-10" x1="228.05" y1="34.64" x2="499.07" y2="34.64" xlink:href="#linear-gradient"/><linearGradient id="linear-gradient-14" x1="228.05" y1="32.42" x2="499.07" y2="32.42" xlink:href="#linear-gradient"/></defs><polygon class="cls-1" points="45.17 92.44 0 47.27 23.89 47.27 37.22 54.74 37.64 54.97 37.88 55.4 45.17 68.55 45.17 92.44"/><polygon class="cls-2" points="92.44 45.17 68.55 45.17 55.22 38.05 54.79 37.82 54.56 37.39 47.27 23.89 47.27 0 92.44 45.17"/><rect class="cls-3" x="39.62" y="46.22" width="6.59" height="6.59"/><rect class="cls-4" x="46.22" y="39.62" width="6.6" height="6.6"/><polygon class="cls-5" points="23.89 45.17 0 45.17 45.17 0 45.17 23.89 37.88 37.39 37.64 37.82 37.22 38.05 23.89 45.17"/><polygon class="cls-5" points="47.27 92.44 47.27 68.55 54.56 55.4 54.79 54.97 55.22 54.74 68.55 47.27 92.44 47.27 47.27 92.44"/><rect class="cls-5" x="39.62" y="39.62" width="6.59" height="6.6"/><rect class="cls-5" x="46.22" y="46.22" width="6.6" height="6.59"/><path class="cls-6" d="M258.87,24.06l7.87,21.65h-5.45l-1.44-3.92h-5l-2.53-4.29-3.12,8.21h-5.59l8-21.65Zm-6.4,13h5.8l-2.89-8.16Z" transform="translate(-135.84 -3.7)"/><path class="cls-6" d="M275.32,24.06l6.56,18v-18h4.77V45.71h-8.19l-6.15-17.52V45.71H267.5V24.06Z" transform="translate(-135.84 -3.7)"/><path class="cls-6" d="M293.59,24.06h19.88L311,28.31h-5.27v17.4H300.6V28.31h-7Z" transform="translate(-135.84 -3.7)"/><path class="cls-6" d="M314.36,24.06h5.16v8.36h7.64V24.06h5.15V45.71h-5.15V33.14l-2.54,4h-5.1v8.61h-5.16Z" transform="translate(-135.84 -3.7)"/><path class="cls-7" d="M334.2,24.06h5.16V36.43a8.69,8.69,0,0,0,.36,2.77,2.72,2.72,0,0,0,1.19,1.52,5.19,5.19,0,0,0,1.44.58,6.43,6.43,0,0,0,1.24.12,5,5,0,0,0,2.63-.67,3.14,3.14,0,0,0,1.48-2,13.55,13.55,0,0,0,.33-3.32V24.06h5.16v12.4a12.24,12.24,0,0,1-1,5.56,6.37,6.37,0,0,1-2.33,2.54,9.08,9.08,0,0,1-2.94,1,19.32,19.32,0,0,1-3.46.28q-1,0-1.8-.06a13.88,13.88,0,0,1-1.61-.21,9,9,0,0,1-1.57-.45,10.37,10.37,0,0,1-1.61-.79,4.87,4.87,0,0,1-2.2-3,22.53,22.53,0,0,1-.51-5.37Z" transform="translate(-135.84 -3.7)"/><path class="cls-8" d="M369.33,24.06l7.86,21.65h-5.44l-1.45-3.92h-5l-2.54-4.29-3.11,8.21h-5.59l8-21.65ZM364,19.43h3.46l2.6,3.48h-2.95L365.67,21l-1.45,1.87h-2.93Zm-1,17.67h5.79l-2.89-8.16Zm5.29,10.37v2.38H363V47.47Z" transform="translate(-135.84 -3.7)"/><path class="cls-6" d="M385.77,24.06l6.57,18v-18h4.76V45.71h-8.19l-6.15-17.52V45.71H378V24.06Z" transform="translate(-135.84 -3.7)"/><path class="cls-6" d="M409.65,34.32V45.71h-5.16V24.06h12a10.93,10.93,0,0,1,3.53.52,4.08,4.08,0,0,1,2.29,1.79,7.71,7.71,0,0,1,1,2.35,11.94,11.94,0,0,1,.23,2.43,12.49,12.49,0,0,1-.17,2.17,8.42,8.42,0,0,1-1,2.39,4.17,4.17,0,0,1-2.49,2,14.84,14.84,0,0,1-4.5.55h-2.6Zm0-.66h4.56a7.66,7.66,0,0,0,2.67-.31,1.83,1.83,0,0,0,1-.84,3.29,3.29,0,0,0,.27-1.45,3,3,0,0,0-.25-1.32,1.84,1.84,0,0,0-1.09-.75,9,9,0,0,0-2.52-.26h-4.66Z" transform="translate(-135.84 -3.7)"/><path class="cls-6" d="M425.33,24.06h5.16v8.36h7.64V24.06h5.15V45.71h-5.15V33.14l-2.54,4h-5.1v8.61h-5.16Z" transform="translate(-135.84 -3.7)"/><path class="cls-9" d="M459.25,24.06l7.86,21.65h-5.44l-1.45-3.92h-5L452.7,37.5l-3.11,8.21H444l8-21.65Zm-6.4,13h5.8l-2.9-8.16Zm5.77-17.88-2.85,3.26h-2.08l1.67-3.35h3.26Z" transform="translate(-135.84 -3.7)"/><path class="cls-6" d="M467.52,24.06H487.4l-2.47,4.25h-5.27v17.4h-5.13V28.31h-7Z" transform="translate(-135.84 -3.7)"/><path class="cls-5" d="M312.9,64.71a2.35,2.35,0,0,1,0-.26c0-.26,0-.6.06-1,0-.19,0-.36,0-.5v-8c0-.77,0-1.6-.1-2.5h2.47l5.21,8.35V54.92c0-.37,0-.76,0-1.18s-.06-.86-.1-1.3h2l0,.31c0,.19,0,.38,0,.56s0,.44,0,.78,0,.39,0,.52v9.08a7.21,7.21,0,0,0,.07,1.07l0,.3H320l-5.33-8.49v6c0,.34,0,.74,0,1.21s.06.89.09,1.29h-2A1.85,1.85,0,0,0,312.9,64.71Z" transform="translate(-135.84 -3.7)"/><path class="cls-5" d="M324.21,63.77c0-.47,0-.86,0-1.2V54.94c0-.4,0-.81,0-1.21s0-.84-.07-1.29h2.78V57a3.41,3.41,0,0,1,2.46-1.06,2.86,2.86,0,0,1,1.45.36,2.37,2.37,0,0,1,1,1,2.54,2.54,0,0,1,.2.59,4.28,4.28,0,0,1,.07.76v3.94c0,.42,0,.83,0,1.22s0,.83.08,1.28h-2.89q0-.21,0-.33c0-.08,0-.17,0-.27s0-.59.05-1c0-.22,0-.4,0-.53V58.83a1.5,1.5,0,0,0-.08-.62,1,1,0,0,0-.41-.42,1.21,1.21,0,0,0-.61-.16,1.87,1.87,0,0,0-1.36.7V63c0,.12,0,.26,0,.42s0,.32,0,.45,0,.26,0,.39,0,.24,0,.37,0,.28,0,.44h-2.91C324.16,64.66,324.19,64.23,324.21,63.77Z" transform="translate(-135.84 -3.7)"/><path class="cls-5" d="M338.6,58.55a1.1,1.1,0,0,0-.55-.89,2.35,2.35,0,0,0-1.29-.33,3.38,3.38,0,0,0-1.12.19,7,7,0,0,0-1.3.64v-2c.52-.09,1-.16,1.37-.2s.83-.06,1.29-.06a5.63,5.63,0,0,1,3.12.74,2.34,2.34,0,0,1,1.14,2.06v3.92c0,.34,0,.63,0,.88a4.66,4.66,0,0,0,.09.75c0,.12.05.24.07.34a2.63,2.63,0,0,0,.11.46h-2.75a1.58,1.58,0,0,1-.11-.33c0-.09,0-.22,0-.39a3.33,3.33,0,0,1-1.07.7,3.26,3.26,0,0,1-1.26.22,2.85,2.85,0,0,1-2-.72,2.42,2.42,0,0,1-.77-1.88,2.67,2.67,0,0,1,.67-1.86,5.55,5.55,0,0,1,2.17-1.35,8.42,8.42,0,0,1,1.07-.39,11.48,11.48,0,0,1,1.15-.28Zm-1.33-5.9c.13.3.23.53.31.69a6.13,6.13,0,0,0,.29.55c.12.24.24.46.35.64s.27.44.48.76h-1.17l-2.19-2.64Zm1.4,7.32a3.66,3.66,0,0,1-.39.22l-.26.16-.67.34A2,2,0,0,0,336,62.44a1.2,1.2,0,0,0,.37.91,1.28,1.28,0,0,0,.94.36,1.91,1.91,0,0,0,.68-.12,2.29,2.29,0,0,0,.67-.42Z" transform="translate(-135.84 -3.7)"/><path class="cls-5" d="M348.33,56.92v-2q0-.64,0-1.23c0-.38-.05-.81-.1-1.27h4a5.23,5.23,0,0,1,4.19,1.64,7,7,0,0,1,1.44,4.75,7.6,7.6,0,0,1-.77,3.53,4.94,4.94,0,0,1-2.24,2.21,4,4,0,0,1-1.11.37,7.72,7.72,0,0,1-1.41.12h-4.16c0-.19,0-.35,0-.5s0-.28,0-.4,0-.24,0-.36,0-.25,0-.39l0-.22,0-.63V58.21h-1.09V56.92Zm4.4,0v1.29h-1.48v5.2h1.16a2.14,2.14,0,0,0,1.12-.28,2,2,0,0,0,.77-.88,5.72,5.72,0,0,0,.44-1.53,16.3,16.3,0,0,0,.14-2.27,8.16,8.16,0,0,0-.34-2.62,2.87,2.87,0,0,0-1.05-1.48,1.51,1.51,0,0,0-.57-.22,3.94,3.94,0,0,0-.8-.08h-.87v2.87Z" transform="translate(-135.84 -3.7)"/><path class="cls-5" d="M361.63,61.63a3.41,3.41,0,0,0,.82,1.61,1.91,1.91,0,0,0,1.4.58,2.67,2.67,0,0,0,2-1.07l.81,1a2.35,2.35,0,0,1-.32.32l-.3.24a5,5,0,0,1-3,1,4.64,4.64,0,0,1-1.79-.33,3.72,3.72,0,0,1-1.36-1,4.29,4.29,0,0,1-.87-1.52,5.9,5.9,0,0,1-.31-2,5.4,5.4,0,0,1,.3-1.83,4.27,4.27,0,0,1,.84-1.44,3.89,3.89,0,0,1,1.3-.92,4.07,4.07,0,0,1,1.66-.34,3.64,3.64,0,0,1,2.67,1,4.21,4.21,0,0,1,1.11,2.75Zm-.27-1.57c0,.08,0,.18,0,.31l2.16-.87a.66.66,0,0,0,.41-.7,1.64,1.64,0,0,0-.34-1,1,1,0,0,0-.81-.44,1.19,1.19,0,0,0-1.05.67,3.4,3.4,0,0,0-.4,1.78A2.53,2.53,0,0,0,361.36,60.06Zm.65,6.52a1.34,1.34,0,0,1,.95-.31,1.15,1.15,0,0,1,.85.33,1.16,1.16,0,0,1,.32.86,1.11,1.11,0,0,1-.34.86,1.24,1.24,0,0,1-.9.32,1.16,1.16,0,0,1-.88-.32,1.14,1.14,0,0,1-.33-.86A1.17,1.17,0,0,1,362,66.58Z" transform="translate(-135.84 -3.7)"/><path class="cls-5" d="M370.61,56.17l.05.52a4.18,4.18,0,0,1,.95-.58,2.64,2.64,0,0,1,1-.19,2.76,2.76,0,0,1,1.33.33,3.37,3.37,0,0,1,1.06.9,4.43,4.43,0,0,1,.7,1.37,5.69,5.69,0,0,1,.25,1.75,6.43,6.43,0,0,1-.28,1.95,5,5,0,0,1-.78,1.56,3.76,3.76,0,0,1-1.17,1,2.83,2.83,0,0,1-1.44.39,2.45,2.45,0,0,1-.8-.12,3.71,3.71,0,0,1-.74-.35v1.18c0,.31,0,.7,0,1.16s0,.92.06,1.37H368l0-.34q0-.24,0-.54c0-.21,0-.41,0-.61l0-.57c0-.18,0-.34,0-.47V58.65c0-.22,0-.42,0-.62s0-.4,0-.6,0-.4,0-.6,0-.42-.06-.66Zm.56,7.45a1.27,1.27,0,0,0,.54.11,1.3,1.3,0,0,0,1.2-.85,5.76,5.76,0,0,0,.41-2.48,4.73,4.73,0,0,0-.38-2.15,1.21,1.21,0,0,0-1.1-.74,1,1,0,0,0-.61.19,1.93,1.93,0,0,0-.48.53v5A1.34,1.34,0,0,0,371.17,63.62Z" transform="translate(-135.84 -3.7)"/><path class="cls-5" d="M381.94,61.94a6.28,6.28,0,0,0,1.74,1.29,4.06,4.06,0,0,0,1.73.4,2.23,2.23,0,0,0,1.48-.48,1.49,1.49,0,0,0,.58-1.23,1.51,1.51,0,0,0-.38-1,4,4,0,0,0-1.24-.87l-1-.47-.72-.37a6.62,6.62,0,0,1-.59-.37,3.73,3.73,0,0,1-1.21-1.26A3.21,3.21,0,0,1,382,56a3.07,3.07,0,0,1,.35-1.47,3.43,3.43,0,0,1,1-1.18,4.66,4.66,0,0,1,1.47-.77,6.08,6.08,0,0,1,1.85-.27,8.35,8.35,0,0,1,2.81.52v2.45a6.23,6.23,0,0,0-1.49-1.08,3.52,3.52,0,0,0-1.48-.34,1.81,1.81,0,0,0-1.23.39,1.34,1.34,0,0,0-.47,1.06,1.67,1.67,0,0,0,.06.44.77.77,0,0,0,.17.35,1.25,1.25,0,0,0,.18.24,2.17,2.17,0,0,0,.26.2,3.1,3.1,0,0,0,.39.23l.59.3,1.1.54a5.76,5.76,0,0,1,2.13,1.56,3.44,3.44,0,0,1,.64,2.09,4.06,4.06,0,0,1-.34,1.65,3.62,3.62,0,0,1-1,1.26,4.63,4.63,0,0,1-1.48.83,5.84,5.84,0,0,1-1.91.3,6.59,6.59,0,0,1-1.74-.22,13,13,0,0,1-1.88-.66Z" transform="translate(-135.84 -3.7)"/><path class="cls-5" d="M396.22,58.55a1.08,1.08,0,0,0-.55-.89,2.32,2.32,0,0,0-1.28-.33,3.44,3.44,0,0,0-1.13.19,6.94,6.94,0,0,0-1.29.64v-2c.51-.09,1-.16,1.36-.2s.83-.06,1.3-.06a5.63,5.63,0,0,1,3.12.74,2.35,2.35,0,0,1,1.13,2.06v3.92c0,.34,0,.63,0,.88s0,.5.09.75.05.24.07.34a4.05,4.05,0,0,0,.11.46h-2.75a1.09,1.09,0,0,1-.1-.33,3.53,3.53,0,0,1,0-.39,3.3,3.3,0,0,1-1.06.7,3.35,3.35,0,0,1-1.27.22,2.85,2.85,0,0,1-2-.72,2.46,2.46,0,0,1-.77-1.88,2.68,2.68,0,0,1,.68-1.86A5.57,5.57,0,0,1,394,59.45a8.42,8.42,0,0,1,1.07-.39c.32-.1.71-.19,1.15-.28Zm.07,1.42a3.73,3.73,0,0,1-.38.22l-.27.16-.66.34a2,2,0,0,0-1.35,1.75,1.24,1.24,0,0,0,.37.91,1.3,1.3,0,0,0,.94.36,2,2,0,0,0,.69-.12,2.26,2.26,0,0,0,.66-.42Z" transform="translate(-135.84 -3.7)"/><path class="cls-5" d="M400.86,63.6q0-.66,0-1.23V58.73c0-.42,0-.84,0-1.24s-.05-.84-.1-1.32h2.79V57a3.28,3.28,0,0,1,3.46-.85,3.13,3.13,0,0,1,.93.48,2.21,2.21,0,0,1,.59.86,4.15,4.15,0,0,1,.18,1.35V62.4c0,.27,0,.53,0,.79s0,.51,0,.77,0,.35,0,.49,0,.34,0,.61h-2.92v-.38c0-.22,0-.45,0-.68s0-.44,0-.65,0-.38,0-.54,0-.28,0-.37V58.86c0-.82-.39-1.23-1.16-1.23a1.37,1.37,0,0,0-.72.18,2.37,2.37,0,0,0-.62.64v4.79c0,.22,0,.43,0,.61s0,.37,0,.56,0,.41.05.65h-2.94C400.79,64.53,400.83,64,400.86,63.6Z" transform="translate(-135.84 -3.7)"/><path class="cls-5" d="M417.41,56.14l.76.45c0,.16-.07.3-.09.43s0,.23-.05.29,0,.61-.07,1.2,0,1.39,0,2.39v.62c0,1,0,1.93.11,2.74,0,.55.05,1,.05,1.31A2.63,2.63,0,0,1,417,67.84a5.24,5.24,0,0,1-3.12.78,9.38,9.38,0,0,1-1.81-.16,10.18,10.18,0,0,1-1.73-.51l.43-1.87a8.52,8.52,0,0,0,1.56.87,3.54,3.54,0,0,0,1.35.27c1.13,0,1.69-.52,1.69-1.54,0-.16,0-.32,0-.49s0-.36-.05-.6v0a3.15,3.15,0,0,1-.84.5,2.84,2.84,0,0,1-1,.16,3,3,0,0,1-1.36-.32,3.31,3.31,0,0,1-1.07-.91,4.53,4.53,0,0,1-.7-1.37,6.34,6.34,0,0,1,.06-3.72,5.12,5.12,0,0,1,.84-1.57,3.87,3.87,0,0,1,1.29-1,3.62,3.62,0,0,1,1.64-.37,4,4,0,0,1,1.28.18,4.52,4.52,0,0,1,1.12.64Zm-2.12,1.69a1.23,1.23,0,0,0-.48-.38,1.21,1.21,0,0,0-1.67.76,6.09,6.09,0,0,0-.4,2.49,5,5,0,0,0,.37,2.17,1.16,1.16,0,0,0,2.18,0Z" transform="translate(-135.84 -3.7)"/></svg>